<svg width="28" height="28" viewBox="0 0 28 28" fill="none" xmlns="http://www.w3.org/2000/svg">
<rect width="28" height="28" fill="#1E1E1E"/>
<rect x="1" width="27" height="28" fill="#156579"/>
<rect width="27" height="28" fill="#219EBC"/>
<rect x="3" y="2" width="21" height="18" fill="black"/>
<rect x="4" y="3" width="20" height="17" fill="#010D14"/>
<path d="M4 11.5833H7.89744L9.35897 7.25L10.8205 17L13.2564 4L14.7179 17L17.1538 6.70833L18.6154 11.5833H23" stroke="#FFB703"/>
<path d="M4.98227 25.349V21.884H5.98327V25.349H4.98227ZM3.79927 24.124V23.144H7.20827V24.124H3.79927Z" fill="white"/>
<path d="M15.1803 24.607L14.4943 25.293L11.8273 22.626L12.5133 21.94L15.1803 24.607ZM11.8273 24.607L14.4943 21.94L15.1803 22.626L12.5133 25.293L11.8273 24.607Z" fill="white"/>
<path d="M19.8623 23.655V22.71H23.1453V23.655H19.8623ZM19.8623 25.153V24.208H23.1453V25.153H19.8623Z" fill="white"/>
</svg>
